<?xml version="1.0" encoding="utf-8"?>
<!-- Generator: Adobe Illustrator 25.1.0, SVG Export Plug-In . SVG Version: 6.00 Build 0)  -->
<svg version="1.1"
	 id="svg3209" inkscape:version="0.48.2 r9819" sodipodi:docname="Neues Dokument 11" xmlns:cc="http://creativecommons.org/ns#" xmlns:dc="http://purl.org/dc/elements/1.1/" xmlns:inkscape="http://www.inkscape.org/namespaces/inkscape" xmlns:rdf="http://www.w3.org/1999/02/22-rdf-syntax-ns#" xmlns:sodipodi="http://sodipodi.sourceforge.net/DTD/sodipodi-0.dtd" xmlns:svg="http://www.w3.org/2000/svg"
	 xmlns="http://www.w3.org/2000/svg" xmlns:xlink="http://www.w3.org/1999/xlink" x="0px" y="0px" viewBox="0 0 60 60"
	 style="enable-background:new 0 0 60 60;" xml:space="preserve">
<style type="text/css">
	.st0{fill:#E2E2E2;}
	.st1{fill:#FFFFFF;}
	.st2{fill:#0000FF;}
</style>
<path class="st0" d="M14.6,58.3h29.2c1.5,0,2.8-1,3.2-2.5l9.1-50c0.4-1.7-0.9-3.3-2.6-3.3H4.9c-1.7,0-3,1.6-2.6,3.3l9.1,50
	C11.7,57.3,13.1,58.3,14.6,58.3z"/>
<path class="st0" d="M14.6,58.3h29.2c1.5,0,2.8-1,3.2-2.5l6.9-41H4.5l6.9,41C11.7,57.3,13.1,58.3,14.6,58.3z"/>
<sodipodi:namedview  bordercolor="#666666" borderopacity="1.0" fit-margin-bottom="0" fit-margin-left="0" fit-margin-right="0" fit-margin-top="0" id="base" inkscape:current-layer="layer1" inkscape:cx="56.727193" inkscape:cy="-67.066627" inkscape:document-units="px" inkscape:pageopacity="0.0" inkscape:pageshadow="2" inkscape:window-height="1148" inkscape:window-maximized="1" inkscape:window-width="1920" inkscape:window-x="-8" inkscape:window-y="-8" inkscape:zoom="1.4" pagecolor="#ffffff" showgrid="false">
	</sodipodi:namedview>
<path id="path3004" sodipodi:cx="498.92856" sodipodi:cy="598.61218" sodipodi:rx="8.9285717" sodipodi:ry="9.4642859" sodipodi:type="arc" class="st1" d="
	M8.7,37.6c0-5.3,4.5-9.6,10-9.6c5.5,0,10,4.3,10,9.6s-4.5,9.6-10,9.6S8.7,42.9,8.7,37.6z"/>
<path id="path3004-1" sodipodi:cx="498.92856" sodipodi:cy="598.61218" sodipodi:rx="8.9285717" sodipodi:ry="9.4642859" sodipodi:type="arc" class="st1" d="
	M27,37.8c0-5.3,4.5-9.6,10-9.6c5.5,0,10,4.3,10,9.6s-4.5,9.6-10,9.6S27,43.1,27,37.8z"/>
<path id="path3026" sodipodi:cx="482.2847" sodipodi:cy="598.23547" sodipodi:rx="2.841054" sodipodi:ry="2.9673231" sodipodi:type="arc" class="st2" d="
	M27.8,37.8c0-2.8,2.2-5,5-5c2.8,0,5,2.2,5,5c0,2.8-2.2,5-5,5C30,42.8,27.8,40.6,27.8,37.8z"/>
<path id="path3026-7" sodipodi:cx="482.2847" sodipodi:cy="598.23547" sodipodi:rx="2.841054" sodipodi:ry="2.9673231" sodipodi:type="arc" class="st2" d="
	M8.8,38.1c0-2.8,2.2-5,5-5c2.8,0,5,2.2,5,5c0,2.8-2.2,5-5,5S8.8,40.9,8.8,38.1z"/>
<path class="st1" d="M47.2,22.1L47.2,22.1c1,0.2,1.9-0.5,2.1-1.4l2.4-12.9c0.2-1-0.5-1.9-1.4-2.1v0c-1-0.2-1.9,0.5-2.1,1.4L45.8,20
	C45.6,21,46.3,21.9,47.2,22.1z"/>
<circle class="st1" cx="46.3" cy="25.6" r="1.9"/>
</svg>
