<?xml version="1.0" encoding="utf-8"?>
<!-- Generator: Adobe Illustrator 25.1.0, SVG Export Plug-In . SVG Version: 6.00 Build 0)  -->
<svg version="1.1"
	 id="svg3209" inkscape:version="0.48.2 r9819" sodipodi:docname="blinky.svg" xmlns:cc="http://creativecommons.org/ns#" xmlns:dc="http://purl.org/dc/elements/1.1/" xmlns:inkscape="http://www.inkscape.org/namespaces/inkscape" xmlns:rdf="http://www.w3.org/1999/02/22-rdf-syntax-ns#" xmlns:sodipodi="http://sodipodi.sourceforge.net/DTD/sodipodi-0.dtd" xmlns:svg="http://www.w3.org/2000/svg"
	 xmlns="http://www.w3.org/2000/svg" xmlns:xlink="http://www.w3.org/1999/xlink" x="0px" y="0px" viewBox="0 0 60 60"
	 style="enable-background:new 0 0 60 60;" xml:space="preserve">
<style type="text/css">
	.st0{fill:#E2E2E2;}
	.st1{fill:#FFBC00;}
	.st2{fill:#FFFFFF;}
	.st3{fill:none;stroke:#000000;}
</style>
<sodipodi:namedview  bordercolor="#666666" borderopacity="1.0" fit-margin-bottom="0" fit-margin-left="0" fit-margin-right="0" fit-margin-top="0" id="base" inkscape:current-layer="layer1" inkscape:cx="56.727193" inkscape:cy="-15.981831" inkscape:document-units="px" inkscape:pageopacity="0.0" inkscape:pageshadow="2" inkscape:window-height="838" inkscape:window-maximized="1" inkscape:window-width="1600" inkscape:window-x="-8" inkscape:window-y="-8" inkscape:zoom="2.990248" pagecolor="#ffffff" showgrid="false">
	</sodipodi:namedview>
<path class="st0" d="M14.6,58.3h29.2c1.5,0,2.8-1,3.2-2.5l9.1-50c0.4-1.7-0.9-3.3-2.6-3.3H4.9c-1.7,0-3,1.6-2.6,3.3l9.1,50
	C11.7,57.3,13.1,58.3,14.6,58.3z"/>
<path class="st1" d="M14.6,58.3h29.2c1.5,0,2.8-1,3.2-2.5l7.4-41H4l7.4,41C11.7,57.3,13.1,58.3,14.6,58.3z"/>
<path id="path3004_1_" sodipodi:cx="498.92856" sodipodi:cy="598.61218" sodipodi:rx="8.9285717" sodipodi:ry="9.4642859" sodipodi:type="arc" class="st2" d="
	M8.7,37.6c0-5.3,4.5-9.6,10-9.6c5.5,0,10,4.3,10,9.6s-4.5,9.6-10,9.6S8.7,42.9,8.7,37.6z"/>
<path id="path3004-1_1_" sodipodi:cx="498.92856" sodipodi:cy="598.61218" sodipodi:rx="8.9285717" sodipodi:ry="9.4642859" sodipodi:type="arc" class="st2" d="
	M27,37.8c0-5.3,4.5-9.6,10-9.6c5.5,0,10,4.3,10,9.6s-4.5,9.6-10,9.6S27,43.1,27,37.8z"/>
<path id="path3023" sodipodi:argument="-18.782988" sodipodi:cx="-171.42857" sodipodi:cy="90.714287" sodipodi:expansion="1" sodipodi:radius="10.738069" sodipodi:revolution="3" sodipodi:t0="0" sodipodi:type="spiral" class="st3" d="
	M17.4,38.7c0.5,0,0.2,0.7-0.1,0.8c-0.6,0.4-1.3-0.3-1.5-0.9c-0.3-1.1,0.6-2.1,1.7-2.3c1.5-0.2,2.7,1.1,2.9,2.6
	c0.2,2-1.4,3.6-3.3,3.7c-2.3,0.1-4.2-1.9-4.3-4.3c-0.1-2.8,2.2-5.1,4.9-5.2c3.1-0.1,5.6,2.7,5.7,5.9c0,3.7-3,6.7-6.5,6.7
	c-3.9,0-7.1-3.6-7.1-7.6c0-4.6,3.8-8.2,8.1-8.1c4.8,0,8.5,4.4,8.5,9.3"/>
<path id="path3023-1" sodipodi:argument="-18.782988" sodipodi:cx="-171.42857" sodipodi:cy="90.714287" sodipodi:expansion="1" sodipodi:radius="10.738069" sodipodi:revolution="3" sodipodi:t0="0" sodipodi:type="spiral" class="st3" d="
	M35.5,38.5c0.5,0,0.2,0.7-0.1,0.8c-0.6,0.4-1.3-0.3-1.5-0.9c-0.3-1.1,0.6-2.1,1.7-2.3c1.5-0.2,2.7,1.1,2.9,2.6
	c0.2,2-1.4,3.6-3.3,3.7c-2.3,0.1-4.2-1.9-4.3-4.3c-0.1-2.8,2.2-5.1,4.9-5.2c3.1-0.1,5.6,2.7,5.7,5.9c0,3.7-3,6.7-6.5,6.7
	c-3.9,0-7.1-3.6-7.1-7.6c0-4.6,3.8-8.2,8.1-8.1c4.8,0,8.5,4.4,8.5,9.3"/>
<ellipse class="st0" cx="32.5" cy="14.8" rx="3.5" ry="1.7"/>
<ellipse class="st1" cx="40.2" cy="15.1" rx="4.3" ry="2.8"/>
<ellipse class="st1" cx="10.5" cy="14.8" rx="6.5" ry="2.8"/>
<ellipse class="st0" cx="49.4" cy="14.8" rx="5" ry="2.8"/>
<ellipse class="st0" cx="23" cy="13.9" rx="6.2" ry="4.1"/>
<circle class="st0" cx="30.2" cy="18.7" r="1.5"/>
<circle class="st1" cx="18.7" cy="13.4" r="1"/>
<circle class="st1" cx="21.7" cy="10.3" r="1.7"/>
<path class="st2" d="M47.2,22.1L47.2,22.1c1,0.2,1.9-0.5,2.1-1.4l2.4-12.9c0.2-1-0.5-1.9-1.4-2.1v0c-1-0.2-1.9,0.5-2.1,1.4L45.8,20
	C45.6,21,46.3,21.9,47.2,22.1z"/>
<circle class="st2" cx="46.3" cy="25.6" r="1.9"/>
</svg>
